0
SECTION
2
HEADER
9
$INSUNITS
70
4
9
$ACADVER
1
AC1014
9
$HANDSEED
5
FFFF
0
ENDSEC
0
SECTION
2
TABLES
0
TABLE
2
VPORT
5
8
100
AcDbSymbolTable
0
ENDTAB
0
TABLE
2
LTYPE
5
5
100
AcDbSymbolTable
0
LTYPE
5
14
100
AcDbSymbolTableRecord
100
AcDbLinetypeTableRecord
2
BYBLOCK
70
0
0
LTYPE
5
15
100
AcDbSymbolTableRecord
100
AcDbLinetypeTableRecord
2
BYLAYER
70
0
0
ENDTAB
0
TABLE
2
LAYER
5
2
100
AcDbSymbolTable
70
2
0
LAYER
5
50
100
AcDbSymbolTableRecord
100
AcDbLayerTableRecord
2
0
70
0
6
CONTINUOUS
0
ENDTAB
0
TABLE
2
STYLE
5
3
100
AcDbSymbolTable
70
1
0
STYLE
5
11
100
AcDbSymbolTableRecord
100
AcDbTextStyleTableRecord
2
STANDARD
70
0
0
ENDTAB
0
TABLE
2
VIEW
5
6
100
AcDbSymbolTable
70
0
0
ENDTAB
0
TABLE
2
UCS
5
7
100
AcDbSymbolTable
70
0
0
ENDTAB
0
TABLE
2
APPID
5
9
100
AcDbSymbolTable
70
2
0
APPID
5
12
100
AcDbSymbolTableRecord
100
AcDbRegAppTableRecord
2
ACAD
70
0
0
ENDTAB
0
TABLE
2
DIMSTYLE
5
A
100
AcDbSymbolTable
70
1
0
ENDTAB
0
TABLE
2
BLOCK_RECORD
5
1
100
AcDbSymbolTable
70
1
0
BLOCK_RECORD
5
1F
100
AcDbSymbolTableRecord
100
AcDbBlockTableRecord
2
*MODEL_SPACE
0
BLOCK_RECORD
5
1B
100
AcDbSymbolTableRecord
100
AcDbBlockTableRecord
2
*PAPER_SPACE
0
ENDTAB
0
ENDSEC
0
SECTION
2
BLOCKS
0
BLOCK
5
20
100
AcDbEntity
100
AcDbBlockBegin
2
*MODEL_SPACE
0
ENDBLK
5
21
100
AcDbEntity
100
AcDbBlockEnd
0
BLOCK
5
1C
100
AcDbEntity
100
AcDbBlockBegin
2
*PAPER_SPACE
0
ENDBLK
5
1D
100
AcDbEntity
100
AcDbBlockEnd
0
ENDSEC
0
SECTION
2
ENTITIES
0
LWPOLYLINE
5
100
100
AcDbEntity
8
0
100
AcDbPolyline
90
4
70
1
43
0.0
10
-58.192847790856703
20
-6.4684304407017734
10
49.491399661227824
20
-6.4684304407018134
10
74.161272627789344
20
36.261042978795778
10
-33.522974809778844
20
36.261042978795686
0
LWPOLYLINE
5
101
100
AcDbEntity
8
0
100
AcDbPolyline
90
5
70
1
43
0.0
10
52.378151005477335
20
-11.468430440701809
10
-87.621848912142696
20
-11.468430440701667
10
-17.621848953332861
20
109.77512608911761
10
52.378151005477385
20
109.77512608911766
10
87.378150984882325
20
49.153347824208957
0
LWPOLYLINE
5
102
100
AcDbEntity
8
0
100
AcDbPolyline
90
4
70
1
43
0.0
10
-24.336647304626609
20
88.144873021914947
10
-33.336647304626695
20
72.556415753795108
10
-25.802226291702098
20
68.206415753795071
10
-16.802226291702024
20
83.794873021914924
0
LWPOLYLINE
5
103
100
AcDbEntity
8
0
100
AcDbPolyline
90
4
70
1
43
0.0
10
-38.024469478135742
20
50.436869572429629
10
-45.125877789168115
20
54.536869572429659
10
-50.625877789168179
20
45.010590130800843
10
-43.524469478135813
20
40.910590130800813
0
LWPOLYLINE
5
104
100
AcDbEntity
8
0
100
AcDbPolyline
90
4
70
1
43
0.0
10
-36.024469478135714
20
53.900971187567379
10
-30.524469478135657
20
63.427250629196195
10
-37.625877789168044
20
67.527250629196217
10
-43.125877789168108
20
58.000971187567401
0
ELLIPSE
5
105
100
AcDbEntity
8
0
100
AcDbEllipse
10
24.401920514527301
20
84.542705214123657
30
0
11
-2.0878049011852085e-08
21
-1.4999999999892775
31
0.0
40
0.99999999941157491
41
3.9317380813806979
42
7.073330734969133
0
ELLIPSE
5
106
100
AcDbEntity
8
0
100
AcDbEllipse
10
25.890024062854447
20
86.045005063934497
30
0
11
2.0880443485360445e-08
21
1.5000000000052085
31
0.0
40
0.99999999941157536
41
3.9317380813807015
42
7.0733307349705026
0
ELLIPSE
5
107
100
AcDbEntity
8
0
100
AcDbEllipse
10
12.885527090109308
20
73.040443675100647
30
0
11
2.460657286262879e-07
21
-7.9999999999999583
31
0.0
40
0.99999999941157469
41
0.12532780040984759
42
1.4454684629912464
0
LINE
5
108
100
AcDbEntity
8
0
100
AcDbLine
10
0.9467135112050149
20
87.100618061188925
30
-1.5032458278242095e-37
11
1.7124255438252733
21
86.327601244879006
31
7.3135976019139369e-38
0
LINE
5
109
100
AcDbEntity
8
0
100
AcDbLine
10
20.822781016755194
20
72.0404436601995
30
8.6322763351560706e-37
11
27.273021865971813
21
72.040443660199486
31
0
0
ELLIPSE
5
110
100
AcDbEntity
8
0
100
AcDbEllipse
10
12.885527090109308
20
73.040443675100647
30
0
11
-3.4994725450765429e-08
21
14.422205316763467
31
0.0
40
0.99999999941157491
41
4.7817821819449602
42
6.2137921018021212
0
ELLIPSE
5
111
100
AcDbEntity
8
0
100
AcDbEllipse
10
12.885527090109308
20
73.040443675100647
30
0
11
-9.9817888121744844e-08
21
7.9999999999999707
31
0.0
40
0.99999999941157558
41
0.12532782056819958
42
1.4454684812722269
0
LINE
5
112
100
AcDbEntity
8
0
100
AcDbLine
10
25.467603954037756
20
62.593795179012545
30
8.136663599078982e-38
11
25.781397768012184
21
62.277007816706949
31
0
0
LINE
5
113
100
AcDbEntity
8
0
100
AcDbLine
10
2.0776823411291083
20
85.958859949760026
30
1.2474077107717763e-37
11
2.4348170623908683
21
85.59831821415537
31
0
0
LINE
5
114
100
AcDbEntity
8
0
100
AcDbLine
10
-1.1846533026803625
20
61.091495305758855
30
-1.3779753430306826e-37
11
0.3034502456578389
21
62.593795155558212
31
-6.2635250030163107e-38
0
ELLIPSE
5
115
100
AcDbEntity
8
0
100
AcDbEllipse
10
12.885527090109308
20
73.040443675100647
30
0
11
1.0316003606902768e-09
21
-14.422205316763488
31
0.0
40
0.99999999941157525
41
0.069393202879487553
42
1.501403122736648
0
LINE
5
116
100
AcDbEntity
8
0
100
AcDbLine
10
26.014585708637515
20
62.041595296344376
30
-1.3551840137917836e-38
11
26.955707505146862
21
61.091495331960601
31
-1.1894777120358727e-37
0
LINE
5
117
100
AcDbEntity
8
0
100
AcDbLine
10
27.273021865971785
20
74.040443690001794
30
1.5736924507062397e-37
11
20.822781016755187
21
74.040443690001794
31
0
0
ELLIPSE
5
118
100
AcDbEntity
8
0
100
AcDbEllipse
10
24.838828680110513
20
61.110147279422264
30
0
11
1.7743410768433776e-08
21
1.4999999999952165
31
0.0
40
0.99999999941157491
41
5.3823626568807299
42
5.6037171571172717
0
ELLIPSE
5
119
100
AcDbEntity
8
0
100
AcDbEllipse
10
0.8454403888649481
20
85.103535584786144
30
0
11
-5.6598887382408591e-08
21
1.5000000000082403
31
0.0
40
0.99999999941157491
41
5.3191580053825813
42
5.6669217094987774
0
LINE
5
120
100
AcDbEntity
8
0
100
AcDbLine
10
-1.5019676857928532
20
72.040443660769981
30
0
11
4.9482731626346954
21
72.040443666777207
31
0
0
LINE
5
121
100
AcDbEntity
8
0
100
AcDbLine
10
11.885527075796583
20
87.427938459429114
30
2.5787388576503997e-38
11
11.885527075796574
21
80.977697606417024
31
0
0
ELLIPSE
5
122
100
AcDbEntity
8
0
100
AcDbEllipse
10
1.3691336443035798
20
84.542705192672798
30
0
11
2.3672181576062101e-08
21
-1.5000000000154403
31
0.0
40
0.99999999941157491
41
5.493039879388566
42
8.6346325329783706
0
ELLIPSE
5
123
100
AcDbEntity
8
0
100
AcDbEllipse
10
1.3691336656913395
20
61.538182136077594
30
0
11
1.9412503465821024e-07
21
1.4999999999892588
31
0.0
40
0.99999999941157491
41
3.9317382117785047
42
7.0733308504671255
0
ELLIPSE
5
124
100
AcDbEntity
8
0
100
AcDbEllipse
10
12.885527090109308
20
73.040443675100647
30
0
11
-1.1828709317596164e-07
21
7.9999999999999547
31
0.0
40
0.9999999994115748
41
4.8377167986442364
42
6.1578574612256336
0
LINE
5
125
100
AcDbEntity
8
0
100
AcDbLine
10
26.955707482899022
20
84.989392044442411
30
-1.2515210839334862e-37
11
25.46760393456081
21
83.487092194643026
31
-3.7699523055245581e-38
0
LINE
5
126
100
AcDbEntity
8
0
100
AcDbLine
10
13.885527089520872
20
58.652948889736479
30
0
11
13.885527089520869
21
65.103189741906917
31
0
0
ELLIPSE
5
127
100
AcDbEntity
8
0
100
AcDbEllipse
10
12.885527090109308
20
73.040443675100647
30
0
11
-4.2979686060151678e-08
21
-7.999999999999976
31
0.0
40
0.9999999994115748
41
4.8377168179738721
42
6.1578574795066112
0
LINE
5
128
100
AcDbEntity
8
0
100
AcDbLine
10
2.4348171014547071
20
60.482569132476904
30
6.2635250954681483e-38
11
0.94671353740878317
21
58.980269266774641
31
0
0
ELLIPSE
5
129
100
AcDbEntity
8
0
100
AcDbEllipse
10
-0.11896990685861497
20
86.045005039711825
30
0
11
-2.2751902029050086e-08
21
1.4999999999947669
31
0.0
40
0.99999999941157491
41
5.4930398800105893
42
8.6346325335947416
0
LINE
5
130
100
AcDbEntity
8
0
100
AcDbLine
10
0.30345022621628959
20
83.487092171190213
30
-3.1376810101089929e-38
11
-1.1846533249282087
21
84.989392018240736
31
0
0
LINE
5
131
100
AcDbEntity
8
0
100
AcDbLine
10
13.885527089520881
20
80.977697608294378
30
3.1553954271927054e-37
11
13.88552708952089
21
87.427938460464802
31
-1.5736924448660692e-37
0
ELLIPSE
5
132
100
AcDbEntity
8
0
100
AcDbEllipse
10
-0.11896988263578734
20
60.035882286266755
30
0
11
-2.088045611414735e-08
21
-1.5000000000052216
31
0.0
40
0.99999999941157491
41
3.9317380813807064
42
7.0733307349704919
0
LINE
5
133
100
AcDbEntity
8
0
100
AcDbLine
10
23.336237094492368
20
85.598318233602839
30
3.7699523055329596e-38
11
24.824340642809872
21
87.100618083426582
31
0
0
LINE
5
134
100
AcDbEntity
8
0
100
AcDbLine
10
24.82434065327784
20
58.980269304898336
30
1.1894777277438498e-37
11
23.336237117864592
21
60.482569136045967
31
0
0
ELLIPSE
5
135
100
AcDbEntity
8
0
100
AcDbEllipse
10
12.885527090109308
20
73.040443675100647
30
0
11
-2.1597828067654312e-07
21
14.422205316763483
31
0.0
40
0.99999999941157525
41
0.069393189011319356
42
1.5014031078327787
0
ELLIPSE
5
136
100
AcDbEntity
8
0
100
AcDbEllipse
10
12.885527090109308
20
73.040443675100647
30
0
11
-1.6558676638189773e-07
21
-14.422205316763495
31
0.0
40
0.99999999941157514
41
4.7817821958131335
42
6.2137921146742441
0
LINE
5
137
100
AcDbEntity
8
0
100
AcDbLine
10
11.885527075796569
20
65.10318974378427
30
-3.5264829525621406e-38
11
11.885527075796578
21
58.652948890772187
31
0
0
ELLIPSE
5
138
100
AcDbEntity
8
0
100
AcDbEllipse
10
24.401920535951888
20
61.538182157528531
30
0
11
-2.2020392995147908e-07
21
1.5000000000154168
31
0.0
40
0.99999999941157491
41
5.4930397483687434
42
8.6346324019571945
0
LINE
5
139
100
AcDbEntity
8
0
100
AcDbLine
10
4.9482731634634094
20
74.040443690001794
30
-5.7156677307637687e-37
11
-1.5019676857531938
21
74.040443690001808
31
-8.3974346758735869e-37
0
ELLIPSE
5
140
100
AcDbEntity
8
0
100
AcDbEllipse
10
25.890024087077276
20
60.035882310489512
30
0
11
1.3247512808955975e-09
21
-1.4999999999947689
31
0.0
40
0.99999999941157491
41
5.4930398793885695
42
8.6346325478795087
0
ENDSEC
0
SECTION
2
OBJECTS
0
DICTIONARY
5
C
100
AcDbDictionary
3
ACAD_GROUP
350
D
3
ACAD_MLINESTYLE
350
17
0
DICTIONARY
5
D
100
AcDbDictionary
0
DICTIONARY
5
1A
330
C
100
AcDbDictionary
0
DICTIONARY
5
17
100
AcDbDictionary
0
ENDSEC
0
EOF
