0
SECTION
2
HEADER
9
$INSUNITS
70
4
9
$ACADVER
1
AC1014
9
$HANDSEED
5
FFFF
0
ENDSEC
0
SECTION
2
TABLES
0
TABLE
2
VPORT
5
8
100
AcDbSymbolTable
0
ENDTAB
0
TABLE
2
LTYPE
5
5
100
AcDbSymbolTable
0
LTYPE
5
14
100
AcDbSymbolTableRecord
100
AcDbLinetypeTableRecord
2
BYBLOCK
70
0
0
LTYPE
5
15
100
AcDbSymbolTableRecord
100
AcDbLinetypeTableRecord
2
BYLAYER
70
0
0
ENDTAB
0
TABLE
2
LAYER
5
2
100
AcDbSymbolTable
70
2
0
LAYER
5
50
100
AcDbSymbolTableRecord
100
AcDbLayerTableRecord
2
0
70
0
6
CONTINUOUS
0
ENDTAB
0
TABLE
2
STYLE
5
3
100
AcDbSymbolTable
70
1
0
STYLE
5
11
100
AcDbSymbolTableRecord
100
AcDbTextStyleTableRecord
2
STANDARD
70
0
0
ENDTAB
0
TABLE
2
VIEW
5
6
100
AcDbSymbolTable
70
0
0
ENDTAB
0
TABLE
2
UCS
5
7
100
AcDbSymbolTable
70
0
0
ENDTAB
0
TABLE
2
APPID
5
9
100
AcDbSymbolTable
70
2
0
APPID
5
12
100
AcDbSymbolTableRecord
100
AcDbRegAppTableRecord
2
ACAD
70
0
0
ENDTAB
0
TABLE
2
DIMSTYLE
5
A
100
AcDbSymbolTable
70
1
0
ENDTAB
0
TABLE
2
BLOCK_RECORD
5
1
100
AcDbSymbolTable
70
1
0
BLOCK_RECORD
5
1F
100
AcDbSymbolTableRecord
100
AcDbBlockTableRecord
2
*MODEL_SPACE
0
BLOCK_RECORD
5
1B
100
AcDbSymbolTableRecord
100
AcDbBlockTableRecord
2
*PAPER_SPACE
0
ENDTAB
0
ENDSEC
0
SECTION
2
BLOCKS
0
BLOCK
5
20
100
AcDbEntity
100
AcDbBlockBegin
2
*MODEL_SPACE
0
ENDBLK
5
21
100
AcDbEntity
100
AcDbBlockEnd
0
BLOCK
5
1C
100
AcDbEntity
100
AcDbBlockBegin
2
*PAPER_SPACE
0
ENDBLK
5
1D
100
AcDbEntity
100
AcDbBlockEnd
0
ENDSEC
0
SECTION
2
ENTITIES
0
LWPOLYLINE
5
100
100
AcDbEntity
8
0
100
AcDbPolyline
90
6
70
1
43
0.0
10
-25.467535367193534
20
62.593795179010996
10
-25.781329181354597
20
62.277007816710245
42
0.055395183334530966
10
-26.014517122117198
20
62.04159529634758
10
-26.955638919176828
20
61.091495331960523
42
1.0000000074505806
10
-24.82427206605368
20
58.980269304898236
10
-23.336168529764791
20
60.482569136045889
42
0.99999999999999989
0
LWPOLYLINE
5
101
100
AcDbEntity
8
0
100
AcDbPolyline
90
4
70
1
43
0.0
10
-26.955638896928981
20
84.989392044442297
42
-0.99999999999999989
10
-24.824272055585705
20
87.100618083426554
10
-23.336168506357218
20
85.59831823360426
42
-0.99999999999999989
10
-25.46753534767835
20
83.487092194642969
0
LINE
5
102
100
AcDbEntity
8
0
100
AcDbLine
10
-1.7123569429955154
20
86.327601244873037
30
0
11
-0.94664490993659356
21
87.100618061182871
31
0
0
LWPOLYLINE
5
103
100
AcDbEntity
8
0
100
AcDbPolyline
90
4
70
1
43
0.0
10
-8.3344485191476636
20
42.356516446963468
10
-8.3344485191476636
20
46.296319410598699
10
-17.64671006955821
20
46.296319410598699
10
-17.64671006955821
20
42.356516446963468
0
LWPOLYLINE
5
104
100
AcDbEntity
8
0
100
AcDbPolyline
90
4
70
1
43
0.0
10
-13.885458495860039
20
58.6529488897364
10
-13.885458495860046
20
65.103189741906832
42
-0.34256415939770579
10
-20.822712427176402
20
72.040443660199415
10
-27.272953280188506
20
72.040443660199415
42
0.37412403509999437
0
LWPOLYLINE
5
105
100
AcDbEntity
8
0
100
AcDbPolyline
90
4
70
1
43
0.0
10
-11.885458480958883
20
65.103189743784185
10
-11.88545848095888
20
58.652948890772095
42
0.37412403481612649
10
1.5020362885080818
20
72.040443660769839
10
-4.9482045637149472
20
72.040443666777108
42
-0.34256415910477689
0
LWPOLYLINE
5
106
100
AcDbEntity
8
0
100
AcDbPolyline
90
12
70
1
43
0.0
10
-45.193712682142035
20
101.55282651133773
10
-47.639152807756915
20
102.96470202614863
10
-74.9498712988769
20
55.661150008319439
10
-72.868705140057671
20
54.459588166296768
10
-60.898704024587829
20
47.810705480006028
10
-51.177760210368405
20
65.311346383107946
10
-48.306533760387573
20
63.716488734596496
10
-40.519561001425011
20
77.735396423117351
10
-43.70969489480018
20
79.507395089282809
10
-42.679779477163777
20
81.361554544279059
10
-39.34173129798225
20
79.507395089282809
10
-31.363482741882677
20
93.870657102149565
0
LINE
5
107
100
AcDbEntity
8
0
100
AcDbLine
10
-2.4347484619553397
20
85.59831821415527
30
0
11
-2.0776137405160355
21
85.958859949751542
31
0
0
LWPOLYLINE
5
108
100
AcDbEntity
8
0
100
AcDbPolyline
90
5
70
1
43
0.0
10
17.62191756553343
20
109.77512608911752
10
87.621917565532996
20
-11.468430440701773
10
-52.378082434466542
20
-11.468430440701889
10
-87.378082434466378
20
49.153347824208886
10
-52.378082434466577
20
109.77512608911759
0
LWPOLYLINE
5
109
100
AcDbEntity
8
0
100
AcDbPolyline
90
4
70
1
43
0.0
10
33.291790546610507
20
36.261042978795693
10
-74.161204069596266
20
36.261042978795707
10
-49.491331088518393
20
-6.4684304407018756
10
57.961663527688643
20
-6.4684304407018844
0
LINE
5
110
100
AcDbEntity
8
0
100
AcDbLine
10
1.1847219274567156
20
84.98939201824065
30
0
11
-0.30338162454659923
21
83.487092171207109
31
0
0
ARC
5
111
100
AcDbEntity
8
0
100
AcDbCircle
10
0.1190384845372261
20
60.03588228626667
30
0
40
1.5000000000052216
210
0
220
0
230
1
100
AcDbArc
50
-135.27199741640348
51
44.728002583596336
0
ARC
5
112
100
AcDbEntity
8
0
100
AcDbCircle
10
-1.369065064665536
20
61.538182136077502
30
0
40
1.4999999999892699
210
0
220
-0
230
1
100
AcDbArc
50
44.728002583582075
51
224.72800258358205
0
LWPOLYLINE
5
113
100
AcDbEntity
8
0
100
AcDbPolyline
90
4
70
1
43
0.0
10
-11.88545848095888
20
87.427938459429015
42
-0.3741240348048277
10
1.5020362884684246
20
74.040443690001695
10
-4.9482045645436656
20
74.040443690001695
42
0.34256415887328656
10
-11.885458480958871
20
80.977697606416939
0
LWPOLYLINE
5
114
100
AcDbEntity
8
0
100
AcDbPolyline
90
4
70
1
43
0.0
10
-20.822712427176398
20
74.040443690001723
42
-0.34256415939770579
10
-13.885458495860036
20
80.977697608294292
10
-13.885458495860043
20
87.427938460464702
42
0.37412403509999403
10
-27.272953280188489
20
74.040443690001723
0
ARC
5
115
100
AcDbEntity
8
0
100
AcDbCircle
10
-0.84537178753117259
20
85.103535584786243
30
0
40
1.4999999999997524
210
0
220
0
230
1
100
AcDbArc
50
125.309301052683
51
145.23469356660914
0
LINE
5
116
100
AcDbEntity
8
0
100
AcDbLine
10
-0.94664493613442424
20
58.980269266774563
30
0
11
-2.4347484853261179
21
60.482569116596892
31
0
0
ARC
5
117
100
AcDbEntity
8
0
100
AcDbCircle
10
-1.3690650432409517
20
84.542705192672699
30
0
40
1.5000000000154445
210
0
220
0
230
1
100
AcDbArc
50
135.27199730977432
51
315.27199730969659
0
ARC
5
118
100
AcDbEntity
8
0
100
AcDbCircle
10
0.11903850876006095
20
86.045005039711754
30
0
40
1.4999999999947828
210
0
220
0
230
1
100
AcDbArc
50
-44.728002690391158
51
135.27199730960848
0
LINE
5
119
100
AcDbEntity
8
0
100
AcDbLine
10
-0.30338164400495443
20
62.593795155558112
30
0
11
1.1847219052088764
21
61.09149530575877
31
0
0
ENDSEC
0
SECTION
2
OBJECTS
0
DICTIONARY
5
C
100
AcDbDictionary
3
ACAD_GROUP
350
D
3
ACAD_MLINESTYLE
350
17
0
DICTIONARY
5
D
100
AcDbDictionary
0
DICTIONARY
5
1A
330
C
100
AcDbDictionary
0
DICTIONARY
5
17
100
AcDbDictionary
0
ENDSEC
0
EOF
