0
SECTION
2
HEADER
9
$INSUNITS
70
4
9
$ACADVER
1
AC1014
9
$HANDSEED
5
FFFF
0
ENDSEC
0
SECTION
2
TABLES
0
TABLE
2
VPORT
5
8
100
AcDbSymbolTable
0
ENDTAB
0
TABLE
2
LTYPE
5
5
100
AcDbSymbolTable
0
LTYPE
5
14
100
AcDbSymbolTableRecord
100
AcDbLinetypeTableRecord
2
BYBLOCK
70
0
0
LTYPE
5
15
100
AcDbSymbolTableRecord
100
AcDbLinetypeTableRecord
2
BYLAYER
70
0
0
ENDTAB
0
TABLE
2
LAYER
5
2
100
AcDbSymbolTable
70
2
0
LAYER
5
50
100
AcDbSymbolTableRecord
100
AcDbLayerTableRecord
2
0
70
0
6
CONTINUOUS
0
ENDTAB
0
TABLE
2
STYLE
5
3
100
AcDbSymbolTable
70
1
0
STYLE
5
11
100
AcDbSymbolTableRecord
100
AcDbTextStyleTableRecord
2
STANDARD
70
0
0
ENDTAB
0
TABLE
2
VIEW
5
6
100
AcDbSymbolTable
70
0
0
ENDTAB
0
TABLE
2
UCS
5
7
100
AcDbSymbolTable
70
0
0
ENDTAB
0
TABLE
2
APPID
5
9
100
AcDbSymbolTable
70
2
0
APPID
5
12
100
AcDbSymbolTableRecord
100
AcDbRegAppTableRecord
2
ACAD
70
0
0
ENDTAB
0
TABLE
2
DIMSTYLE
5
A
100
AcDbSymbolTable
70
1
0
ENDTAB
0
TABLE
2
BLOCK_RECORD
5
1
100
AcDbSymbolTable
70
1
0
BLOCK_RECORD
5
1F
100
AcDbSymbolTableRecord
100
AcDbBlockTableRecord
2
*MODEL_SPACE
0
BLOCK_RECORD
5
1B
100
AcDbSymbolTableRecord
100
AcDbBlockTableRecord
2
*PAPER_SPACE
0
ENDTAB
0
ENDSEC
0
SECTION
2
BLOCKS
0
BLOCK
5
20
100
AcDbEntity
100
AcDbBlockBegin
2
*MODEL_SPACE
0
ENDBLK
5
21
100
AcDbEntity
100
AcDbBlockEnd
0
BLOCK
5
1C
100
AcDbEntity
100
AcDbBlockBegin
2
*PAPER_SPACE
0
ENDBLK
5
1D
100
AcDbEntity
100
AcDbBlockEnd
0
ENDSEC
0
SECTION
2
ENTITIES
0
LWPOLYLINE
5
100
100
AcDbEntity
8
0
100
AcDbPolyline
90
8
70
1
43
0.0
10
-109.65301406984369
20
-92.920011382292984
10
-109.65301406984374
20
73.079988617706917
10
-120.53976541579188
20
73.079988617706917
10
-120.53976541579188
20
80.079988617706903
10
7.4602345842080631
20
80.079988617706945
10
7.4602345842081164
20
-99.920011382292955
10
-120.53976541579182
20
-99.920011382292984
10
-120.53976541579182
20
-92.920011382292984
0
LINE
5
101
100
AcDbEntity
8
0
100
AcDbLine
10
10.346985930156229
20
-99.920011382292955
30
5.5596808591616277e-33
11
10.346985930156176
21
80.079988617706945
31
2.5207871374072783e-31
0
LINE
5
102
100
AcDbEntity
8
0
100
AcDbLine
10
7.4602345842081164
20
-99.920011382292955
30
0
11
10.346985930156229
21
-99.920011382292955
31
5.5596808591616277e-33
0
LINE
5
103
100
AcDbEntity
8
0
100
AcDbLine
10
10.346985930156176
20
80.079988617706945
30
2.5207871374072783e-31
11
7.4602345842080631
21
80.079988617706945
31
2.4651903288156619e-31
0
LWPOLYLINE
5
104
100
AcDbEntity
8
0
100
AcDbPolyline
90
4
70
1
43
0.0
10
-45.718450141525494
20
-8.9403265657502118
10
-39.268209288513383
20
-8.9403265657502118
42
0.37412403509999431
10
-52.655704072841857
20
4.4471682047127814
10
-52.655704072841857
20
-2.0030726474576421
42
-0.34256415939770585
0
LWPOLYLINE
5
105
100
AcDbEntity
8
0
100
AcDbPolyline
90
4
70
1
43
0.0
10
-39.26820928851339
20
-10.940326595552516
10
-45.71845014152548
20
-10.940326595552516
42
-0.34256415939770618
10
-52.655704072841843
20
-17.87758051384511
10
-52.655704072841843
20
-24.327821366015545
42
0.37412403509999448
0
CIRCLE
5
106
100
AcDbEntity
8
0
100
AcDbCircle
10
-65.712075630532752
20
-21.883450938920674
30
6.8422776578360209e-48
40
1.4999999999999991
210
0
220
-0
230
1
0
CIRCLE
5
107
100
AcDbEntity
8
0
100
AcDbCircle
10
-41.928510881744685
20
-50.933741346100362
30
0
40
1.5000000000000036
210
0
220
-0
230
1
0
CIRCLE
5
108
100
AcDbEntity
8
0
100
AcDbCircle
10
-65.431813359795953
20
-51.027194436009033
30
0
40
1.4999999999999991
210
0
220
-0
230
1
0
CIRCLE
5
109
100
AcDbEntity
8
0
100
AcDbCircle
10
-65.293145702551584
20
-97.527194436009012
30
0
40
1.4999999999999991
210
0
220
-0
230
1
0
CIRCLE
5
110
100
AcDbEntity
8
0
100
AcDbCircle
10
-65.695790781170885
20
2.1227653290340953
30
0
40
1.4999999999999991
210
0
220
-0
230
1
0
LWPOLYLINE
5
111
100
AcDbEntity
8
0
100
AcDbPolyline
90
4
70
1
43
0.0
10
-68.043198857170296
20
-8.9403265657502473
10
-61.592958004158206
20
-8.9403265657502313
42
-0.34256415887328651
10
-54.655704087743011
20
-2.0030726493350137
10
-54.655704087743011
20
4.4471682036770943
42
0.37412403480482781
0
LWPOLYLINE
5
112
100
AcDbEntity
8
0
100
AcDbPolyline
90
4
70
1
43
0.0
10
-54.65570408774299
20
-24.32782136497984
10
-54.65570408774299
20
-17.877580511967746
42
-0.34256415910477667
10
-61.592958004986933
20
-10.940326588974845
10
-68.043198857209958
20
-10.94032659498211
42
0.3741240348161266
0
CIRCLE
5
113
100
AcDbEntity
8
0
100
AcDbCircle
10
-41.722021486777493
20
2.1203789225400982
30
0
40
1.4999999999999947
210
0
220
-0
230
1
0
CIRCLE
5
114
100
AcDbEntity
8
0
100
AcDbCircle
10
-41.837276609954074
20
-97.433741346100348
30
1.3684555315672042e-47
40
1.5000000000000036
210
0
220
-0
230
1
0
CIRCLE
5
115
100
AcDbEntity
8
0
100
AcDbCircle
10
-41.702402475807013
20
-21.870622976329752
30
0
40
1.5000000000000036
210
0
220
-0
230
1
0
ENDSEC
0
SECTION
2
OBJECTS
0
DICTIONARY
5
C
100
AcDbDictionary
3
ACAD_GROUP
350
D
3
ACAD_MLINESTYLE
350
17
0
DICTIONARY
5
D
100
AcDbDictionary
0
DICTIONARY
5
1A
330
C
100
AcDbDictionary
0
DICTIONARY
5
17
100
AcDbDictionary
0
ENDSEC
0
EOF
