0
SECTION
2
HEADER
9
$INSUNITS
70
4
9
$ACADVER
1
AC1014
9
$HANDSEED
5
FFFF
0
ENDSEC
0
SECTION
2
TABLES
0
TABLE
2
VPORT
5
8
100
AcDbSymbolTable
0
ENDTAB
0
TABLE
2
LTYPE
5
5
100
AcDbSymbolTable
0
LTYPE
5
14
100
AcDbSymbolTableRecord
100
AcDbLinetypeTableRecord
2
BYBLOCK
70
0
0
LTYPE
5
15
100
AcDbSymbolTableRecord
100
AcDbLinetypeTableRecord
2
BYLAYER
70
0
0
ENDTAB
0
TABLE
2
LAYER
5
2
100
AcDbSymbolTable
70
2
0
LAYER
5
50
100
AcDbSymbolTableRecord
100
AcDbLayerTableRecord
2
0
70
0
6
CONTINUOUS
0
ENDTAB
0
TABLE
2
STYLE
5
3
100
AcDbSymbolTable
70
1
0
STYLE
5
11
100
AcDbSymbolTableRecord
100
AcDbTextStyleTableRecord
2
STANDARD
70
0
0
ENDTAB
0
TABLE
2
VIEW
5
6
100
AcDbSymbolTable
70
0
0
ENDTAB
0
TABLE
2
UCS
5
7
100
AcDbSymbolTable
70
0
0
ENDTAB
0
TABLE
2
APPID
5
9
100
AcDbSymbolTable
70
2
0
APPID
5
12
100
AcDbSymbolTableRecord
100
AcDbRegAppTableRecord
2
ACAD
70
0
0
ENDTAB
0
TABLE
2
DIMSTYLE
5
A
100
AcDbSymbolTable
70
1
0
ENDTAB
0
TABLE
2
BLOCK_RECORD
5
1
100
AcDbSymbolTable
70
1
0
BLOCK_RECORD
5
1F
100
AcDbSymbolTableRecord
100
AcDbBlockTableRecord
2
*MODEL_SPACE
0
BLOCK_RECORD
5
1B
100
AcDbSymbolTableRecord
100
AcDbBlockTableRecord
2
*PAPER_SPACE
0
ENDTAB
0
ENDSEC
0
SECTION
2
BLOCKS
0
BLOCK
5
20
100
AcDbEntity
100
AcDbBlockBegin
2
*MODEL_SPACE
0
ENDBLK
5
21
100
AcDbEntity
100
AcDbBlockEnd
0
BLOCK
5
1C
100
AcDbEntity
100
AcDbBlockBegin
2
*PAPER_SPACE
0
ENDBLK
5
1D
100
AcDbEntity
100
AcDbBlockEnd
0
ENDSEC
0
SECTION
2
ENTITIES
0
LWPOLYLINE
5
100
100
AcDbEntity
8
0
100
AcDbPolyline
90
4
70
1
43
0.0
10
-25.118524148929716
20
49.623580202400753
42
-0.37412403509999376
10
-11.731029364601277
20
63.011074972863739
10
-11.73102936460127
20
56.560834120693322
42
0.34256415939770535
10
-18.668283295917632
20
49.623580202400753
0
ARC
5
101
100
AcDbEntity
8
0
100
AcDbCircle
10
-22.247422817220396
20
37.121318669927483
30
0
40
1.5000000000154361
210
0
220
0
230
1
100
AcDbArc
50
-44.728002690225914
51
135.27199730977389
0
LINE
5
102
100
AcDbEntity
8
0
100
AcDbLine
10
-21.181739398506025
20
36.065705648444919
30
0
11
-22.669842934794914
21
34.563405817297273
31
0
0
ARC
5
103
100
AcDbEntity
8
0
100
AcDbCircle
10
-23.735526369221418
20
35.619018822888449
30
0
40
1.499999999994772
210
0
220
0
230
1
100
AcDbArc
50
135.27199730960854
51
315.27199816338236
0
LINE
5
104
100
AcDbEntity
8
0
100
AcDbLine
10
-24.801209787918062
20
36.674631844359553
30
0
11
-23.860087990854947
21
37.624731808743313
31
0
0
ARC
5
105
100
AcDbEntity
8
0
100
AcDbCircle
10
-22.684330961636032
20
36.693283791821138
30
0
40
1.4999999999953131
210
0
220
0
230
1
100
AcDbArc
50
128.93065798988144
51
141.61333662966143
0
LINE
5
106
100
AcDbEntity
8
0
100
AcDbLine
10
-23.626900050092409
20
37.860144329105893
30
0
11
-23.313106235934768
21
38.176931691410054
31
0
0
ARC
5
107
100
AcDbEntity
8
0
100
AcDbCircle
10
2.2734676400188265
20
61.628141552110769
30
0
40
1.4999999999947669
210
0
220
0
230
1
100
AcDbArc
50
-44.728002690389829
51
135.27199730961016
0
LINE
5
108
100
AcDbEntity
8
0
100
AcDbLine
10
3.339151058715494
20
60.572528530639701
30
0
11
1.851047506695358
21
59.07022868358915
31
0
0
ARC
5
109
100
AcDbEntity
8
0
100
AcDbCircle
10
0.78536408798099433
20
60.125841705071743
30
0
40
1.5000000000154352
210
0
220
0
230
1
100
AcDbArc
50
135.27199730977372
51
315.2719973097731
0
LINE
5
110
100
AcDbEntity
8
0
100
AcDbLine
10
-0.28031933073337112
20
61.181454726554314
30
0
11
0.076815390731477251
21
61.54199646216388
31
0
0
ARC
5
111
100
AcDbEntity
8
0
100
AcDbCircle
10
1.3090573437276767
20
60.686672097185188
30
0
40
1.5000000000081029
210
0
220
0
230
1
100
AcDbArc
50
125.30930105273946
51
145.23469356643577
0
LINE
5
112
100
AcDbEntity
8
0
100
AcDbLine
10
0.44207218825730044
20
61.910737757277943
30
0
11
1.2077842213221597
21
62.683754573581837
31
0
0
LWPOLYLINE
5
113
100
AcDbEntity
8
0
100
AcDbPolyline
90
4
70
1
43
0.0
10
-2.7937754324561848
20
47.623580179176138
42
-0.34256415910477739
10
-9.7310293497001172
20
40.686326256183214
10
-9.7310293497001119
20
34.236085403171117
42
0.37412403481612694
10
3.6564654197668434
20
47.623580173168875
0
LWPOLYLINE
5
114
100
AcDbEntity
8
0
100
AcDbPolyline
90
4
70
1
43
0.0
10
3.3391510364676424
20
36.674631818157799
42
-0.99999999999999989
10
1.2077841951243418
20
34.563405779173593
10
-0.28031936979721672
20
36.065705644875841
42
-0.9999999925494194
10
1.8510474872538114
20
38.176931667957142
0
LINE
5
115
100
AcDbEntity
8
0
100
AcDbLine
10
-22.669842924326936
20
62.68375459582554
30
0
11
-21.18173937511521
21
61.181454746020179
31
0
0
ARC
5
116
100
AcDbEntity
8
0
100
AcDbCircle
10
-22.247422795795806
20
60.125841726522609
30
0
40
1.4999999999892775
210
0
220
0
230
1
100
AcDbArc
50
-135.27199741641826
51
44.728002583504342
0
LINE
5
117
100
AcDbEntity
8
0
100
AcDbLine
10
-23.313106216456401
20
59.070228707041998
30
0
11
-24.801209765670237
21
60.57252855684137
31
0
0
ARC
5
118
100
AcDbEntity
8
0
100
AcDbCircle
10
-23.735526344998586
20
61.628141576333455
30
0
40
1.5000000000052092
210
0
220
-0
230
1
100
AcDbArc
50
44.728002583595952
51
224.72800258359592
0
LWPOLYLINE
5
119
100
AcDbEntity
8
0
100
AcDbPolyline
90
4
70
1
43
0.0
10
81.116092658947423
20
-30.885293928302843
10
56.446219677869266
20
11.844179491194717
10
-72.0067749383375
20
11.844179491194735
10
-47.336901957259627
20
-30.885293928302858
0
LWPOLYLINE
5
120
100
AcDbEntity
8
0
100
AcDbPolyline
90
4
70
1
43
0.0
10
-11.731029364601273
20
34.236085402135416
42
-0.37412403509999459
10
-25.118524148929737
20
47.623580172598452
10
-18.668283295917636
20
47.623580172598452
42
0.34256415939770618
10
-11.73102936460128
20
40.686326254305868
0
LWPOLYLINE
5
121
100
AcDbEntity
8
0
100
AcDbPolyline
90
4
70
1
43
0.0
10
-2.7937754332848952
20
49.623580202400738
10
3.6564654197271906
20
49.623580202400738
42
0.37412403480482742
10
-9.7310293497001119
20
63.011074971828052
10
-9.7310293497001084
20
56.560834118815954
42
-0.34256415887328634
0
LWPOLYLINE
5
122
100
AcDbEntity
8
0
100
AcDbPolyline
90
5
70
1
43
0.0
10
89.776346696791762
20
-35.885293928302737
10
-50.223653303207776
20
-35.885293928302858
10
-85.223653303207612
20
24.736484336607916
10
-50.223653303207811
20
85.358262601516628
10
19.776346696792196
20
85.358262601516543
0
ENDSEC
0
SECTION
2
OBJECTS
0
DICTIONARY
5
C
100
AcDbDictionary
3
ACAD_GROUP
350
D
3
ACAD_MLINESTYLE
350
17
0
DICTIONARY
5
D
100
AcDbDictionary
0
DICTIONARY
5
1A
330
C
100
AcDbDictionary
0
DICTIONARY
5
17
100
AcDbDictionary
0
ENDSEC
0
EOF
