0
SECTION
2
HEADER
9
$INSUNITS
70
4
9
$ACADVER
1
AC1014
9
$HANDSEED
5
FFFF
0
ENDSEC
0
SECTION
2
TABLES
0
TABLE
2
VPORT
5
8
100
AcDbSymbolTable
0
ENDTAB
0
TABLE
2
LTYPE
5
5
100
AcDbSymbolTable
0
LTYPE
5
14
100
AcDbSymbolTableRecord
100
AcDbLinetypeTableRecord
2
BYBLOCK
70
0
0
LTYPE
5
15
100
AcDbSymbolTableRecord
100
AcDbLinetypeTableRecord
2
BYLAYER
70
0
0
ENDTAB
0
TABLE
2
LAYER
5
2
100
AcDbSymbolTable
70
2
0
LAYER
5
50
100
AcDbSymbolTableRecord
100
AcDbLayerTableRecord
2
0
70
0
6
CONTINUOUS
0
ENDTAB
0
TABLE
2
STYLE
5
3
100
AcDbSymbolTable
70
1
0
STYLE
5
11
100
AcDbSymbolTableRecord
100
AcDbTextStyleTableRecord
2
STANDARD
70
0
0
ENDTAB
0
TABLE
2
VIEW
5
6
100
AcDbSymbolTable
70
0
0
ENDTAB
0
TABLE
2
UCS
5
7
100
AcDbSymbolTable
70
0
0
ENDTAB
0
TABLE
2
APPID
5
9
100
AcDbSymbolTable
70
2
0
APPID
5
12
100
AcDbSymbolTableRecord
100
AcDbRegAppTableRecord
2
ACAD
70
0
0
ENDTAB
0
TABLE
2
DIMSTYLE
5
A
100
AcDbSymbolTable
70
1
0
ENDTAB
0
TABLE
2
BLOCK_RECORD
5
1
100
AcDbSymbolTable
70
1
0
BLOCK_RECORD
5
1F
100
AcDbSymbolTableRecord
100
AcDbBlockTableRecord
2
*MODEL_SPACE
0
BLOCK_RECORD
5
1B
100
AcDbSymbolTableRecord
100
AcDbBlockTableRecord
2
*PAPER_SPACE
0
ENDTAB
0
ENDSEC
0
SECTION
2
BLOCKS
0
BLOCK
5
20
100
AcDbEntity
100
AcDbBlockBegin
2
*MODEL_SPACE
0
ENDBLK
5
21
100
AcDbEntity
100
AcDbBlockEnd
0
BLOCK
5
1C
100
AcDbEntity
100
AcDbBlockBegin
2
*PAPER_SPACE
0
ENDBLK
5
1D
100
AcDbEntity
100
AcDbBlockEnd
0
ENDSEC
0
SECTION
2
ENTITIES
0
CIRCLE
5
100
100
AcDbEntity
8
0
100
AcDbCircle
10
48.837362939984871
20
78.049388405963256
30
0
40
1.5000000000000036
210
0
220
-0
230
1
0
CIRCLE
5
101
100
AcDbEntity
8
0
100
AcDbCircle
10
48.702488805837795
20
2.4862700361926291
30
1.3684555315672042e-47
40
1.5000000000000036
210
0
220
-0
230
1
0
CIRCLE
5
102
100
AcDbEntity
8
0
100
AcDbCircle
10
48.611254534047191
20
54.758082561892707
30
0
40
1.5000000000000036
210
0
220
-0
230
1
0
CIRCLE
5
103
100
AcDbEntity
8
0
100
AcDbCircle
10
48.817743929014398
20
102.04039030483312
30
0
40
1.4999999999999947
210
0
220
-0
230
1
0
CIRCLE
5
104
100
AcDbEntity
8
0
100
AcDbCircle
10
24.827689785259128
20
78.036560443372338
30
6.8422776578360209e-48
40
1.4999999999999991
210
0
220
-0
230
1
0
CIRCLE
5
105
100
AcDbEntity
8
0
100
AcDbCircle
10
25.246619713240264
20
2.3928169462839648
30
0
40
1.4999999999999991
210
0
220
-0
230
1
0
CIRCLE
5
106
100
AcDbEntity
8
0
100
AcDbCircle
10
25.107952055995916
20
54.596109181029945
30
0
40
1.4999999999999991
210
0
220
-0
230
1
0
CIRCLE
5
107
100
AcDbEntity
8
0
100
AcDbCircle
10
24.843974634620984
20
102.04277671132714
30
0
40
1.4999999999999991
210
0
220
-0
230
1
0
LWPOLYLINE
5
108
100
AcDbEntity
8
0
100
AcDbPolyline
90
4
70
1
43
0.0
10
98
20
0
10
-30
20
0
10
-30
20
180
10
98
20
180
0
LWPOLYLINE
5
109
100
AcDbEntity
8
0
100
AcDbPolyline
90
4
70
1
43
0.0
10
100.88675134594811
20
0
10
98
20
0
10
98
20
180
10
100.88675134594811
20
180
0
LINE
5
110
100
AcDbEntity
8
0
100
AcDbLine
10
37.884061342950034
20
75.59219001627747
30
0
11
37.884061342950034
21
82.042430868447909
31
0
0
ARC
5
111
100
AcDbEntity
8
0
100
AcDbCircle
10
36.884061342950034
20
89.979684801641639
30
0
40
7.9999999999999662
210
-0
220
0
230
1
100
AcDbArc
50
277.18075578145834
51
352.81924411097651
0
LINE
5
112
100
AcDbEntity
8
0
100
AcDbLine
10
44.821315274266397
20
88.979684786740506
30
8.4857649452925629e-50
11
51.271556127278501
21
88.979684786740506
31
0
0
ARC
5
113
100
AcDbEntity
8
0
100
AcDbCircle
10
36.884061342950034
20
89.979684801641639
30
0
40
14.422205316763497
210
0
220
0
230
1
100
AcDbArc
50
273.97593765598805
51
356.02406228467078
0
LWPOLYLINE
5
114
100
AcDbEntity
8
0
100
AcDbPolyline
90
4
70
1
43
0.0
10
44.821315274266397
20
90.9796848165428
10
51.271556127278508
20
90.9796848165428
42
0.37412403509999431
10
37.884061342950034
20
104.36717958700581
10
37.884061342950034
20
97.916938734835384
42
-0.34256415939770574
0
LWPOLYLINE
5
115
100
AcDbEntity
8
0
100
AcDbPolyline
90
4
70
1
43
0.0
10
35.884061328048887
20
75.592190017313186
42
-0.37412403481612683
10
22.496566558581922
20
88.97968478731093
10
28.946807410804954
20
88.979684793318199
42
0.34256415910477683
10
35.88406132804888
20
82.042430870325262
0
LWPOLYLINE
5
116
100
AcDbEntity
8
0
100
AcDbPolyline
90
4
70
1
43
0.0
10
35.884061328048872
20
97.916938732958002
10
35.884061328048872
20
104.36717958597012
42
0.37412403480482748
10
22.496566558621574
20
90.979684816542786
10
28.946807411633678
20
90.9796848165428
42
-0.3425641588732859
0
ENDSEC
0
SECTION
2
OBJECTS
0
DICTIONARY
5
C
100
AcDbDictionary
3
ACAD_GROUP
350
D
3
ACAD_MLINESTYLE
350
17
0
DICTIONARY
5
D
100
AcDbDictionary
0
DICTIONARY
5
1A
330
C
100
AcDbDictionary
0
DICTIONARY
5
17
100
AcDbDictionary
0
ENDSEC
0
EOF
