0
SECTION
2
HEADER
9
$INSUNITS
70
4
9
$ACADVER
1
AC1014
9
$HANDSEED
5
FFFF
0
ENDSEC
0
SECTION
2
TABLES
0
TABLE
2
VPORT
5
8
100
AcDbSymbolTable
0
ENDTAB
0
TABLE
2
LTYPE
5
5
100
AcDbSymbolTable
0
LTYPE
5
14
100
AcDbSymbolTableRecord
100
AcDbLinetypeTableRecord
2
BYBLOCK
70
0
0
LTYPE
5
15
100
AcDbSymbolTableRecord
100
AcDbLinetypeTableRecord
2
BYLAYER
70
0
0
ENDTAB
0
TABLE
2
LAYER
5
2
100
AcDbSymbolTable
70
2
0
LAYER
5
50
100
AcDbSymbolTableRecord
100
AcDbLayerTableRecord
2
0
70
0
6
CONTINUOUS
0
ENDTAB
0
TABLE
2
STYLE
5
3
100
AcDbSymbolTable
70
1
0
STYLE
5
11
100
AcDbSymbolTableRecord
100
AcDbTextStyleTableRecord
2
STANDARD
70
0
0
ENDTAB
0
TABLE
2
VIEW
5
6
100
AcDbSymbolTable
70
0
0
ENDTAB
0
TABLE
2
UCS
5
7
100
AcDbSymbolTable
70
0
0
ENDTAB
0
TABLE
2
APPID
5
9
100
AcDbSymbolTable
70
2
0
APPID
5
12
100
AcDbSymbolTableRecord
100
AcDbRegAppTableRecord
2
ACAD
70
0
0
ENDTAB
0
TABLE
2
DIMSTYLE
5
A
100
AcDbSymbolTable
70
1
0
ENDTAB
0
TABLE
2
BLOCK_RECORD
5
1
100
AcDbSymbolTable
70
1
0
BLOCK_RECORD
5
1F
100
AcDbSymbolTableRecord
100
AcDbBlockTableRecord
2
*MODEL_SPACE
0
BLOCK_RECORD
5
1B
100
AcDbSymbolTableRecord
100
AcDbBlockTableRecord
2
*PAPER_SPACE
0
ENDTAB
0
ENDSEC
0
SECTION
2
BLOCKS
0
BLOCK
5
20
100
AcDbEntity
100
AcDbBlockBegin
2
*MODEL_SPACE
0
ENDBLK
5
21
100
AcDbEntity
100
AcDbBlockEnd
0
BLOCK
5
1C
100
AcDbEntity
100
AcDbBlockBegin
2
*PAPER_SPACE
0
ENDBLK
5
1D
100
AcDbEntity
100
AcDbBlockEnd
0
ENDSEC
0
SECTION
2
ENTITIES
0
LWPOLYLINE
5
100
100
AcDbEntity
8
0
100
AcDbPolyline
90
4
70
1
43
0.0
10
17.62191756553343
20
109.77512608911751
10
87.621917565532996
20
-11.468430440701777
10
78.961663527688657
20
-6.46843044070188
10
14.735166219585324
20
104.77512608911755
0
LWPOLYLINE
5
101
100
AcDbEntity
8
0
100
AcDbPolyline
90
4
70
1
43
0.0
10
17.621917565533494
20
109.77512608911761
10
14.735166219585363
20
104.77512608911761
10
-49.491331088518436
20
104.77512608911758
10
-52.37808243446657
20
109.77512608911758
0
LWPOLYLINE
5
102
100
AcDbEntity
8
0
100
AcDbPolyline
90
4
70
1
43
0.0
10
-52.378082434466442
20
109.7751260891192
10
-49.491331088518322
20
104.7751260891192
10
-81.604579742570152
20
49.153347824208844
10
-87.378082434466393
20
49.153347824208851
0
LWPOLYLINE
5
103
100
AcDbEntity
8
0
100
AcDbPolyline
90
4
70
1
43
0.0
10
-87.378082434466393
20
49.153347824208893
10
-81.604579742570152
20
49.153347824208915
10
-49.491331088518393
20
-6.4684304407018782
10
-52.378082434466535
20
-11.468430440701889
0
LWPOLYLINE
5
104
100
AcDbEntity
8
0
100
AcDbPolyline
90
4
70
1
43
0.0
10
-74.161204069596266
20
36.2610429787957
10
-77.047955415544379
20
41.2610429787957
10
50.952044584455678
20
41.2610429787957
10
53.838795930403805
20
36.261042978795693
0
LINE
5
105
100
AcDbEntity
8
0
100
AcDbLine
10
-47.650141467010869
20
104.77512608911759
30
0
11
-44.405074390005538
21
102.97261411806453
31
0
0
LINE
5
106
100
AcDbEntity
8
0
100
AcDbLine
10
-44.405074390005538
20
102.97261411806453
30
0
11
-45.193712682142035
21
101.55282651133771
31
0
0
LINE
5
107
100
AcDbEntity
8
0
100
AcDbLine
10
-45.193712682142035
20
101.55282651133771
30
0
11
-31.363482741882667
21
93.870657102149565
31
0
0
LINE
5
108
100
AcDbEntity
8
0
100
AcDbLine
10
-31.363482741882667
20
93.870657102149565
30
0
11
-38.871953489375343
21
80.353137322732366
31
0
0
LINE
5
109
100
AcDbEntity
8
0
100
AcDbLine
10
-38.871953489375343
20
80.353137322732366
30
0
11
-39.34173129798225
21
79.507395089282809
31
0
0
LINE
5
110
100
AcDbEntity
8
0
100
AcDbLine
10
-39.34173129798225
20
79.507395089282809
30
0
11
-42.679779477163784
21
81.361554544279088
31
0
0
LINE
5
111
100
AcDbEntity
8
0
100
AcDbLine
10
-42.679779477163784
20
81.361554544279088
30
0
11
-43.709694894800172
21
79.507395089282809
31
0
0
LINE
5
112
100
AcDbEntity
8
0
100
AcDbLine
10
-43.709694894800172
20
79.507395089282809
30
0
11
-40.519561001425018
21
77.735396423117365
31
0
0
LINE
5
113
100
AcDbEntity
8
0
100
AcDbLine
10
-40.519561001425018
20
77.735396423117365
30
0
11
-48.306533760387566
21
63.716488734596496
31
0
0
LINE
5
114
100
AcDbEntity
8
0
100
AcDbLine
10
-48.306533760387566
20
63.716488734596496
30
0
11
-51.177760210368405
21
65.311346383107946
31
0
0
LINE
5
115
100
AcDbEntity
8
0
100
AcDbLine
10
-51.177760210368405
20
65.311346383107946
30
0
11
-60.898704024587829
21
47.810705480006021
31
0
0
LINE
5
116
100
AcDbEntity
8
0
100
AcDbLine
10
-60.898704024587829
20
47.810705480006021
30
0
11
-72.868705140057671
21
54.459588166296768
31
0
0
LINE
5
117
100
AcDbEntity
8
0
100
AcDbLine
10
-72.868705140057671
20
54.459588166296768
30
0
11
-73.975883282115007
21
52.466332423828
31
0
0
LINE
5
118
100
AcDbEntity
8
0
100
AcDbLine
10
-73.975883282115007
20
52.466332423828
30
0
11
-76.370772852710388
21
53.796602959971132
31
0
0
LINE
5
119
100
AcDbEntity
8
0
100
AcDbLine
10
-76.370772852710388
20
53.796602959971132
30
0
11
-46.589420861584401
21
104.18593592945277
31
0
0
LWPOLYLINE
5
120
100
AcDbEntity
8
0
100
AcDbPolyline
90
5
70
1
43
0.0
10
-8.3344485191476654
20
42.356516446963482
10
-17.186213619263185
20
42.356516446963482
10
-17.64671006955821
20
42.356516446963482
10
-17.64671006955821
20
46.296319410598713
10
-8.3344485191476654
20
46.296319410598713
0
LINE
5
121
100
AcDbEntity
8
0
100
AcDbLine
10
-13.047955415544354
20
49.487206345810065
30
0
11
-13.047955415544386
21
104.77512608911759
31
0
0
ENDSEC
0
SECTION
2
OBJECTS
0
DICTIONARY
5
C
100
AcDbDictionary
3
ACAD_GROUP
350
D
3
ACAD_MLINESTYLE
350
17
0
DICTIONARY
5
D
100
AcDbDictionary
0
DICTIONARY
5
1A
330
C
100
AcDbDictionary
0
DICTIONARY
5
17
100
AcDbDictionary
0
ENDSEC
0
EOF
